<svg xmlns="http://www.w3.org/2000/svg" width="37.5" viewBox="0 0 37.5 37.5" height="37.5" version="1.0"><defs><clipPath id="a"><path d="M 0.492188 0 L 37.007812 0 L 37.007812 36.75 L 0.492188 36.75 Z M 0.492188 0"/></clipPath></defs><g clip-path="url(#a)"><path fill="#FFF" d="M 36.796875 15.488281 L 33.710938 14.621094 C 33.347656 13.179688 32.78125 11.808594 32.019531 10.53125 L 33.585938 7.738281 C 33.71875 7.5 33.679688 7.199219 33.484375 7.003906 L 30.238281 3.757812 C 30.042969 3.5625 29.742188 3.523438 29.503906 3.65625 L 26.710938 5.226562 C 25.433594 4.460938 24.0625 3.894531 22.621094 3.53125 L 21.753906 0.445312 C 21.679688 0.183594 21.4375 0 21.164062 0 L 16.570312 0 C 16.296875 0 16.054688 0.183594 15.980469 0.445312 L 15.113281 3.53125 C 13.675781 3.894531 12.300781 4.460938 11.027344 5.226562 L 8.230469 3.65625 C 7.992188 3.523438 7.695312 3.5625 7.5 3.757812 L 4.25 7.003906 C 4.058594 7.199219 4.015625 7.5 4.148438 7.738281 L 5.71875 10.53125 C 4.957031 11.808594 4.386719 13.179688 4.023438 14.621094 L 0.941406 15.488281 C 0.675781 15.5625 0.492188 15.804688 0.492188 16.078125 L 0.492188 20.671875 C 0.492188 20.945312 0.675781 21.1875 0.9375 21.261719 L 4.023438 22.128906 C 4.386719 23.570312 4.953125 24.941406 5.71875 26.21875 L 4.148438 29.011719 C 4.015625 29.25 4.054688 29.550781 4.25 29.746094 L 7.5 32.992188 C 7.691406 33.1875 7.992188 33.226562 8.230469 33.09375 L 11.027344 31.523438 C 12.300781 32.289062 13.675781 32.855469 15.113281 33.21875 L 15.980469 36.304688 C 16.054688 36.566406 16.296875 36.75 16.570312 36.75 L 21.164062 36.75 C 21.4375 36.75 21.679688 36.566406 21.753906 36.304688 L 22.621094 33.21875 C 24.0625 32.855469 25.433594 32.289062 26.710938 31.523438 L 29.503906 33.09375 C 29.746094 33.226562 30.042969 33.1875 30.238281 32.992188 L 33.484375 29.746094 C 33.679688 29.550781 33.71875 29.25 33.585938 29.011719 L 32.019531 26.21875 C 32.78125 24.941406 33.347656 23.570312 33.710938 22.128906 L 36.796875 21.261719 C 37.058594 21.1875 37.242188 20.945312 37.242188 20.671875 L 37.242188 16.078125 C 37.242188 15.804688 37.058594 15.5625 36.796875 15.488281 Z M 36.019531 20.207031 L 33.035156 21.046875 C 32.816406 21.109375 32.652344 21.28125 32.601562 21.5 C 32.25 23.054688 31.640625 24.527344 30.789062 25.875 C 30.671875 26.066406 30.664062 26.308594 30.773438 26.503906 L 32.292969 29.207031 L 29.699219 31.796875 L 26.996094 30.28125 C 26.800781 30.171875 26.558594 30.179688 26.371094 30.296875 C 25.019531 31.148438 23.546875 31.757812 21.996094 32.109375 C 21.777344 32.160156 21.601562 32.324219 21.539062 32.539062 L 20.699219 35.523438 L 17.035156 35.523438 L 16.195312 32.542969 C 16.136719 32.324219 15.960938 32.160156 15.742188 32.109375 C 14.1875 31.757812 12.714844 31.148438 11.367188 30.296875 C 11.175781 30.179688 10.9375 30.171875 10.742188 30.28125 L 8.039062 31.796875 L 5.445312 29.207031 L 6.960938 26.503906 C 7.074219 26.308594 7.066406 26.066406 6.945312 25.875 C 6.09375 24.527344 5.484375 23.054688 5.132812 21.5 C 5.082031 21.28125 4.917969 21.109375 4.703125 21.046875 L 1.71875 20.207031 L 1.71875 16.542969 L 4.703125 15.703125 C 4.917969 15.644531 5.082031 15.46875 5.132812 15.25 C 5.484375 13.695312 6.09375 12.222656 6.945312 10.875 C 7.066406 10.683594 7.070312 10.445312 6.960938 10.25 L 5.445312 7.542969 L 8.035156 4.953125 L 10.742188 6.46875 C 10.9375 6.578125 11.179688 6.574219 11.367188 6.453125 C 12.714844 5.601562 14.1875 4.992188 15.742188 4.640625 C 15.960938 4.589844 16.136719 4.425781 16.195312 4.210938 L 17.035156 1.226562 L 20.699219 1.226562 L 21.539062 4.207031 C 21.601562 4.425781 21.773438 4.589844 21.992188 4.640625 C 23.546875 4.992188 25.019531 5.601562 26.367188 6.453125 C 26.558594 6.570312 26.796875 6.578125 26.992188 6.46875 L 29.699219 4.953125 L 32.289062 7.542969 L 30.773438 10.246094 C 30.664062 10.441406 30.671875 10.683594 30.789062 10.875 C 31.640625 12.222656 32.25 13.695312 32.601562 15.25 C 32.652344 15.46875 32.816406 15.640625 33.03125 15.703125 L 36.019531 16.542969 Z M 36.019531 20.207031"/></g><path fill="#FFF" d="M 18.867188 5.511719 C 11.773438 5.511719 6.003906 11.28125 6.003906 18.375 C 6.003906 25.46875 11.773438 31.238281 18.867188 31.238281 C 25.960938 31.238281 31.730469 25.46875 31.730469 18.375 C 31.730469 11.28125 25.960938 5.511719 18.867188 5.511719 Z M 18.867188 30.011719 C 12.449219 30.011719 7.230469 24.792969 7.230469 18.375 C 7.230469 11.957031 12.449219 6.738281 18.867188 6.738281 C 25.285156 6.738281 30.503906 11.957031 30.503906 18.375 C 30.503906 24.792969 25.285156 30.011719 18.867188 30.011719 Z M 18.867188 30.011719"/><path fill="#FFF" d="M 18.867188 7.960938 C 13.125 7.960938 8.457031 12.632812 8.457031 18.375 C 8.457031 24.117188 13.125 28.789062 18.867188 28.789062 C 24.609375 28.789062 29.28125 24.117188 29.28125 18.375 C 29.28125 12.632812 24.609375 7.960938 18.867188 7.960938 Z M 27.519531 21.4375 L 21.929688 21.4375 C 21.59375 21.4375 21.316406 21.710938 21.316406 22.050781 L 21.316406 23.886719 L 19.367188 23.886719 C 19.113281 23.175781 18.441406 22.664062 17.644531 22.664062 C 16.628906 22.664062 15.804688 23.488281 15.804688 24.5 C 15.804688 25.511719 16.628906 26.335938 17.644531 26.335938 C 18.441406 26.335938 19.113281 25.824219 19.367188 25.113281 L 21.929688 25.113281 C 22.269531 25.113281 22.542969 24.839844 22.542969 24.5 L 22.542969 22.664062 L 26.988281 22.664062 C 25.445312 25.574219 22.386719 27.5625 18.867188 27.5625 C 16.15625 27.5625 13.722656 26.375 12.039062 24.5 L 12.128906 24.5 L 12.128906 20.210938 L 13.355469 20.210938 L 13.355469 20.824219 C 13.355469 21.164062 13.628906 21.4375 13.96875 21.4375 L 16.417969 21.4375 C 16.757812 21.4375 17.03125 21.164062 17.03125 20.824219 L 17.03125 18.375 C 17.03125 18.035156 16.757812 17.761719 16.417969 17.761719 L 13.96875 17.761719 C 13.628906 17.761719 13.355469 18.035156 13.355469 18.375 L 13.355469 18.988281 L 11.519531 18.988281 C 11.179688 18.988281 10.90625 19.261719 10.90625 19.601562 L 10.90625 22.9375 C 10.128906 21.59375 9.679688 20.035156 9.679688 18.375 C 9.679688 16.304688 10.375 14.398438 11.535156 12.863281 L 13.355469 12.863281 L 13.355469 14.699219 C 13.355469 15.039062 13.628906 15.3125 13.96875 15.3125 L 15.917969 15.3125 C 16.171875 16.023438 16.84375 16.539062 17.644531 16.539062 C 18.65625 16.539062 19.480469 15.714844 19.480469 14.699219 C 19.480469 13.6875 18.65625 12.863281 17.644531 12.863281 C 16.84375 12.863281 16.171875 13.375 15.917969 14.085938 L 14.582031 14.085938 L 14.582031 12.25 C 14.582031 11.910156 14.304688 11.636719 13.96875 11.636719 L 12.644531 11.636719 C 13.996094 10.386719 15.726562 9.535156 17.644531 9.277344 L 17.644531 11.636719 C 17.644531 11.976562 17.917969 12.25 18.253906 12.25 L 21.316406 12.25 L 21.316406 16.539062 L 20.707031 16.539062 C 20.367188 16.539062 20.09375 16.8125 20.09375 17.148438 L 20.09375 19.601562 C 20.09375 19.9375 20.367188 20.210938 20.707031 20.210938 L 23.15625 20.210938 C 23.492188 20.210938 23.769531 19.9375 23.769531 19.601562 L 23.769531 17.148438 C 23.769531 16.8125 23.492188 16.539062 23.15625 16.539062 L 22.542969 16.539062 L 22.542969 11.636719 C 22.542969 11.300781 22.269531 11.023438 21.929688 11.023438 L 18.867188 11.023438 L 18.867188 9.1875 C 23.933594 9.1875 28.054688 13.308594 28.054688 18.375 C 28.054688 19.449219 27.859375 20.476562 27.519531 21.4375 Z M 18.253906 24.5 C 18.253906 24.835938 17.980469 25.113281 17.644531 25.113281 C 17.304688 25.113281 17.03125 24.835938 17.03125 24.5 C 17.03125 24.164062 17.304688 23.886719 17.644531 23.886719 C 17.980469 23.886719 18.253906 24.164062 18.253906 24.5 Z M 14.582031 20.210938 L 14.582031 18.988281 L 15.804688 18.988281 L 15.804688 20.210938 Z M 17.03125 14.699219 C 17.03125 14.363281 17.304688 14.085938 17.644531 14.085938 C 17.980469 14.085938 18.253906 14.363281 18.253906 14.699219 C 18.253906 15.039062 17.980469 15.3125 17.644531 15.3125 C 17.304688 15.3125 17.03125 15.039062 17.03125 14.699219 Z M 22.542969 17.761719 L 22.542969 18.988281 L 21.316406 18.988281 L 21.316406 17.761719 Z M 22.542969 17.761719"/><path fill="#FFF" d="M 18.253906 2.449219 L 19.480469 2.449219 L 19.480469 3.675781 L 18.253906 3.675781 Z M 18.253906 2.449219"/><path fill="#FFF" d="M 24.378906 14.699219 L 25.605469 14.699219 L 25.605469 15.925781 L 24.378906 15.925781 Z M 24.378906 14.699219"/><path fill="#FFF" d="M 24.992188 17.761719 L 26.21875 17.761719 L 26.21875 18.988281 L 24.992188 18.988281 Z M 24.992188 17.761719"/><path fill="#FFF" d="M 11.519531 15.925781 L 12.742188 15.925781 L 12.742188 17.148438 L 11.519531 17.148438 Z M 11.519531 15.925781"/><path fill="#FFF" d="M 18.253906 20.824219 L 19.480469 20.824219 L 19.480469 22.050781 L 18.253906 22.050781 Z M 18.253906 20.824219"/><path fill="#FFF" d="M 13.355469 23.273438 L 14.582031 23.273438 L 14.582031 24.5 L 13.355469 24.5 Z M 13.355469 23.273438"/><path fill="#FFF" d="M 28.828125 7.546875 L 29.695312 6.679688 L 30.5625 7.546875 L 29.695312 8.414062 Z M 28.828125 7.546875"/><path fill="#FFF" d="M 33.566406 17.761719 L 34.792969 17.761719 L 34.792969 18.988281 L 33.566406 18.988281 Z M 33.566406 17.761719"/><path fill="#FFF" d="M 28.828125 29.203125 L 29.695312 28.335938 L 30.5625 29.203125 L 29.695312 30.070312 Z M 28.828125 29.203125"/><path fill="#FFF" d="M 18.253906 33.074219 L 19.480469 33.074219 L 19.480469 34.300781 L 18.253906 34.300781 Z M 18.253906 33.074219"/><path fill="#FFF" d="M 7.175781 29.203125 L 8.039062 28.335938 L 8.90625 29.203125 L 8.039062 30.070312 Z M 7.175781 29.203125"/><path fill="#FFF" d="M 2.941406 17.761719 L 4.167969 17.761719 L 4.167969 18.988281 L 2.941406 18.988281 Z M 2.941406 17.761719"/><path fill="#FFF" d="M 7.171875 7.546875 L 8.039062 6.679688 L 8.90625 7.546875 L 8.039062 8.414062 Z M 7.171875 7.546875"/></svg>